<?xml version="1.0" encoding="utf-8"?>
<!-- Generator: Adobe Illustrator 24.3.0, SVG Export Plug-In . SVG Version: 6.00 Build 0)  -->
<svg version="1.1" id="Laag_1" xmlns="http://www.w3.org/2000/svg" xmlns:xlink="http://www.w3.org/1999/xlink" x="0px" y="0px"
	 viewBox="0 0 595.28 533.74" style="enable-background:new 0 0 595.28 533.74;" xml:space="preserve">
<style type="text/css">
	.st0{filter:url(#Adobe_OpacityMaskFilter);}
	.st1{fill:url(#SVGID_2_);}
	.st2{mask:url(#SVGID_1_);}
	.st3{fill:#95BB20;}
	.st4{fill:#4DA734;}
</style>
<g>
	<defs>
		<filter id="Adobe_OpacityMaskFilter" filterUnits="userSpaceOnUse" x="134.5" y="22.19" width="434.98" height="484.65">
			<feFlood  style="flood-color:white;flood-opacity:1" result="back"/>
			<feBlend  in="SourceGraphic" in2="back" mode="normal"/>
		</filter>
	</defs>
	<mask maskUnits="userSpaceOnUse" x="134.5" y="22.19" width="434.98" height="484.65" id="SVGID_1_">
		<g class="st0">
			
				<linearGradient id="SVGID_2_" gradientUnits="userSpaceOnUse" x1="1.4368" y1="683.1849" x2="2.4368" y2="683.1849" gradientTransform="matrix(213.8619 -268.8612 -268.8612 -213.8619 183597.5312 146848.9688)">
				<stop  offset="0" style="stop-color:#FFFFFF"/>
				<stop  offset="1" style="stop-color:#000000"/>
			</linearGradient>
			<polygon class="st1" points="-215.18,319.03 233.51,-245.05 805.6,210 356.91,774.08 			"/>
		</g>
	</mask>
	<g class="st2">
		<g>
			<path class="st3" d="M569.48,161.12c-0.85,41.24-14.35,77.93-36.5,112.15c-27.52,42.5-61.24,79.69-97.64,114.44
				c-37.55,35.84-76.22,70.51-114.43,105.66c-3.25,2.99-6.63,5.88-10.16,8.54c-8.99,6.76-18.47,6.61-24.95-0.65
				c-7.01-7.85-6.48-16.17-0.02-24.03c18.68-22.68,37.52-45.22,56.28-67.82c2.31-2.79,4.68-5.54,6.83-8.45
				c4.49-6.07,4.56-12.2-1.48-17.05c-6.09-4.9-12.16-3.4-16.99,2.31c-11.44,13.52-22.69,27.19-34.02,40.8
				c-9.28,11.13-18.39,22.4-27.91,33.32c-8.02,9.2-18.54,10.52-26.6,3.96c-8.22-6.7-9.2-17.08-1.58-26.84
				c17.09-21.88,34.58-43.46,51.9-65.16c2.51-3.14,5.1-6.24,7.51-9.45c4.75-6.3,5.64-12.9-1.04-18.09
				c-6.67-5.18-12.85-2.74-17.79,3.43c-16.84,21.05-33.65,42.13-50.48,63.2c-2.01,2.51-3.88,5.15-6.04,7.53
				c-8.75,9.63-20.86,11.01-30.14,3.56c-9.24-7.43-10.93-19.92-3.02-30.12c13.32-17.16,27.26-33.84,40.94-50.73
				c5.32-6.57,10.58-13.18,15.95-19.71c5.4-6.58,6.49-13.46-0.75-18.92c-6.71-5.06-12.85-2.21-17.78,3.88
				c-16.71,20.64-33.55,41.19-50.15,61.92c-6.19,7.73-13.58,12.69-23.79,11.52c-19.12-2.19-27.57-22.82-15.62-39.33
				c20.26-27.98,41.09-55.55,61.74-83.25c6.7-8.99,12.99-18.36,20.49-26.64c10.59-11.69,24.04-12.42,36.6-2.84
				c16.59,12.64,32.79,25.81,49.57,38.19c19,14,47.39,13.83,66.85,0.34c11.78-8.17,14.32-24.42,6-40
				c-22.33-41.88-44.51-83.84-67.37-125.43c-4.24-7.72-3.51-12.54,2.01-18.9c39.06-45.04,88.99-64.14,147.46-59.6
				c52.4,4.07,90.78,43.84,101.79,102.41C567.4,137.06,568.09,149.15,569.48,161.12"/>
		</g>
	</g>
	<path class="st4" d="M147.99,25.26c65.69,3.24,116.48,34.56,149.09,94.93c21,38.88,41.9,77.81,63.19,116.54
		c4.57,8.32,0.99,11.62-6.2,14.23c-16.9,6.14-30.59-1.22-43.26-10.87c-12.12-9.23-23.3-19.71-35.27-29.14
		c-26.41-20.81-55.65-17.21-75.86,9.58c-24.87,32.96-49.27,66.28-73.94,99.41c-11.68,15.68-21.06,15.99-33.62,1.21
		c-29.05-34.19-55.2-70.17-65.7-114.82c-9.49-40.35-7.22-80.08,11.35-117.64C59.64,44.44,96.41,24.28,147.99,25.26"/>
</g>
</svg>
